<svg width="22" height="22" viewBox="0 0 22 22" fill="none" xmlns="http://www.w3.org/2000/svg">
<path d="M17.2499 14.8589C11.2174 14.8589 7.35935 11.0998 7.35935 5.08972C7.35935 3.84778 7.66042 2.07359 8.06184 1.15323C8.16219 0.898186 8.18449 0.742944 8.18449 0.632056C8.18449 0.332661 7.96148 0 7.52661 0C7.40395 0 7.13634 0.0332661 6.89103 0.121976C2.76533 1.7631 0 6.17641 0 10.8226C0 17.3427 4.99544 22 11.5297 22C16.3355 22 20.4947 19.1058 21.8773 15.4909C21.9777 15.2359 22 14.9698 22 14.87C22 14.4597 21.6543 14.1825 21.3421 14.1825C21.1972 14.1825 21.0745 14.2157 20.8626 14.2823C20.0041 14.5595 18.6214 14.8589 17.2499 14.8589Z" fill="currentColor"/>
</svg>
