<svg viewBox="0 0 24 21" fill="none" xmlns="http://www.w3.org/2000/svg">
<path d="M16.347 6.27787C17.6168 6.27787 18.715 5.4975 19.184 4.37937H22.8446C23.4738 4.37937 24 3.80865 24 3.14476C24 2.45757 23.4738 1.91015 22.8446 1.91015H19.1954C18.715 0.792013 17.6168 0 16.347 0C15.0772 0 13.979 0.792013 13.51 1.91015H1.1897C0.526215 1.91015 0 2.46922 0 3.14476C0 3.80865 0.526215 4.37937 1.1897 4.37937H13.51C13.9905 5.4975 15.0772 6.27787 16.347 6.27787ZM16.347 4.61231C15.5462 4.61231 14.9056 3.96007 14.9056 3.13311C14.9056 2.30616 15.5462 1.66556 16.347 1.66556C17.1706 1.66556 17.7998 2.30616 17.7998 3.13311C17.7998 3.96007 17.1706 4.61231 16.347 4.61231ZM1.15539 9.25957C0.526215 9.25957 0 9.81864 0 10.4942C0 11.1581 0.526215 11.7288 1.15539 11.7288H4.94185C5.41087 12.8469 6.50906 13.6389 7.77884 13.6389C9.04862 13.6389 10.1468 12.8469 10.6158 11.7288H22.8103C23.4738 11.7288 24 11.1697 24 10.4942C24 9.81864 23.4738 9.25957 22.8103 9.25957H10.6158C10.1468 8.14143 9.04862 7.36106 7.77884 7.36106C6.50906 7.36106 5.41087 8.14143 4.94185 9.25957H1.15539ZM7.77884 11.9734C6.97807 11.9734 6.33746 11.3211 6.33746 10.4942C6.33746 9.65557 6.97807 9.02662 7.77884 9.02662C8.60248 9.02662 9.23165 9.65557 9.23165 10.4942C9.23165 11.3211 8.60248 11.9734 7.77884 11.9734ZM16.347 21C17.6168 21 18.715 20.208 19.1954 19.0782H22.8446C23.4738 19.0782 24 18.5191 24 17.8552C24 17.1681 23.4738 16.6206 22.8446 16.6206H19.184C18.715 15.5025 17.6282 14.7105 16.347 14.7105C15.0772 14.7105 13.9905 15.5025 13.51 16.6206H1.1897C0.526215 16.6206 0 17.1797 0 17.8552C0 18.5075 0.526215 19.0782 1.1897 19.0782H13.51C13.979 20.208 15.0772 21 16.347 21ZM16.347 19.3228C15.5462 19.3228 14.9056 18.6705 14.9056 17.8552C14.9056 17.0166 15.5462 16.376 16.347 16.376C17.1706 16.376 17.7998 17.0166 17.7998 17.8552C17.7998 18.6705 17.1706 19.3228 16.347 19.3228Z" fill="currentColor"/>
</svg>
