<svg width="22" height="22" viewBox="0 0 22 22" fill="none" xmlns="http://www.w3.org/2000/svg">
<path d="M11.0051 3.9456C11.4831 3.9456 11.8798 3.55002 11.8798 3.06316V0.882434C11.8798 0.395574 11.4831 0 11.0051 0C10.5169 0 10.1202 0.395574 10.1202 0.882434V3.06316C10.1202 3.55002 10.5169 3.9456 11.0051 3.9456ZM15.9889 6.0249C16.3347 6.35961 16.8941 6.36976 17.2399 6.0249L18.7961 4.47303C19.1318 4.13831 19.1318 3.57031 18.7961 3.22545C18.4605 2.89073 17.9011 2.89073 17.5552 3.22545L15.9889 4.78746C15.6533 5.13232 15.6533 5.69018 15.9889 6.0249ZM6.00092 6.0249C6.33657 5.70032 6.33657 5.12218 6.0111 4.78746L4.45492 3.22545C4.11928 2.90088 3.5497 2.89073 3.21405 3.22545C2.87841 3.57031 2.87841 4.13831 3.20388 4.46289L4.76006 6.0249C5.0957 6.35961 5.65511 6.35961 6.00092 6.0249ZM10.9949 16.178C13.8225 16.178 16.172 13.8349 16.172 11.0051C16.172 8.16505 13.8225 5.82204 10.9949 5.82204C8.16736 5.82204 5.81785 8.16505 5.81785 11.0051C5.81785 13.8349 8.16736 16.178 10.9949 16.178ZM18.0536 11.0051C18.0536 11.4818 18.4605 11.8774 18.9385 11.8774H21.1253C21.6033 11.8774 22 11.4818 22 11.0051C22 10.5284 21.6033 10.1226 21.1253 10.1226H18.9385C18.4605 10.1226 18.0536 10.5284 18.0536 11.0051ZM3.94637 11.0051C3.94637 10.5284 3.53953 10.1226 3.06149 10.1226H0.874711C0.396671 10.1226 0 10.5284 0 11.0051C0 11.4818 0.396671 11.8774 0.874711 11.8774H3.06149C3.53953 11.8774 3.94637 11.4818 3.94637 11.0051ZM6.0111 15.9852C5.66528 15.6607 5.0957 15.6607 4.76006 15.9852L3.20388 17.5371C2.86824 17.8718 2.86824 18.4297 3.19371 18.7746C3.52936 19.0991 4.09894 19.1093 4.44475 18.7847L6.00092 17.2227C6.33657 16.888 6.33657 16.3301 6.0111 15.9852ZM15.9889 15.9852C15.6533 16.3301 15.6533 16.888 15.9889 17.2227L17.5552 18.7948C17.9011 19.1194 18.4605 19.1093 18.7961 18.7847C19.1318 18.4398 19.1318 17.882 18.7961 17.5473L17.2298 15.9852C16.8941 15.6607 16.3347 15.6607 15.9889 15.9852ZM11.0051 18.0645C10.5169 18.0645 10.1202 18.4601 10.1202 18.9368V21.1277C10.1202 21.6044 10.5169 22 11.0051 22C11.4831 22 11.8798 21.6044 11.8798 21.1277V18.9368C11.8798 18.4601 11.4831 18.0645 11.0051 18.0645Z" fill="currentColor"/>
</svg>
